<svg xmlns="http://www.w3.org/2000/svg" xmlns:svg="http://www.w3.org/2000/svg" id="svg4874" width="96" height="96" version="1.1" viewBox="0 0 96 96"><metadata id="metadata4879"/><g id="layer1" transform="translate(67.857146,-78.50504)"><g id="g4845" display="inline" transform="matrix(0,-1,-1,0,373.50506,516.50504)"><g id="g4778" transform="matrix(-0.9996045,0,0,1,575.94296,-611.00001)"><g id="g4780" display="inline" transform="matrix(-1,0,0,1,575.99999,611)"><rect id="rect4782" width="96.038" height="96" x="-438.002" y="345.362" fill="none" stroke="none" stroke-width="4" color="#000" display="inline" enable-background="accumulate" overflow="visible" transform="scale(-1,1)" visibility="visible" style="marker:none"/><path display="inline" style="line-height:normal;font-variant-ligatures:none;font-variant-position:normal;font-variant-caps:normal;font-variant-numeric:normal;font-variant-alternates:normal;font-feature-settings:normal;text-indent:0;text-align:start;text-decoration-line:none;text-decoration-style:solid;text-decoration-color:#000;text-transform:none;white-space:normal;shape-padding:0;isolation:auto;mix-blend-mode:normal;solid-color:#000;solid-opacity:1;marker:none" id="path4159" fill="gray" fill-opacity="1" fill-rule="nonzero" stroke="none" stroke-dasharray="none" stroke-dashoffset="0" stroke-linecap="butt" stroke-linejoin="miter" stroke-miterlimit="4" stroke-opacity="1" stroke-width="4" d="M 14.828125 12.001953 L 12 14.828125 L 45.171875 48 L 12 81.171875 L 14.828125 83.998047 L 48 50.828125 L 81.169922 83.998047 L 84 81.171875 L 50.828125 48 L 84 14.828125 L 81.169922 12.001953 L 48 45.171875 L 14.828125 12.001953 z" baseline-shift="baseline" clip-rule="nonzero" color="#000" color-interpolation="sRGB" color-interpolation-filters="linearRGB" color-rendering="auto" direction="ltr" enable-background="accumulate" font-family="sans-serif" font-size="medium" font-stretch="normal" font-style="normal" font-variant="normal" font-weight="normal" image-rendering="auto" letter-spacing="normal" opacity="1" overflow="visible" shape-rendering="auto" text-anchor="start" text-decoration="none" text-rendering="auto" transform="matrix(0,-1,-1.0003957,0,438.00245,441.36222)" visibility="visible" word-spacing="normal" writing-mode="lr-tb"/></g></g></g></g></svg>