<svg xmlns="http://www.w3.org/2000/svg" xmlns:svg="http://www.w3.org/2000/svg" id="svg2" width="644.358" height="626.329" version="1.1"><defs id="defs4"><linearGradient id="linearGradient6853"><stop id="stop6855" offset="0" stop-color="#00adff" stop-opacity="1"/><stop id="stop6861" offset=".822" stop-color="#00adff" stop-opacity=".498"/><stop id="stop6857" offset="1" stop-color="#000" stop-opacity="0"/></linearGradient><marker id="Arrow1Send" orient="auto" overflow="visible" refX="0" refY="0"><path id="path4958" fill-rule="evenodd" stroke="#000" stroke-width="1pt" d="M 0,0 5,-5 -12.5,0 5,5 0,0 z" transform="matrix(-0.2,0,0,-0.2,-1.2,0)"/></marker><marker id="Arrow1Sstart" orient="auto" overflow="visible" refX="0" refY="0"><path id="path4955" fill-rule="evenodd" stroke="#000" stroke-width="1pt" d="M 0,0 5,-5 -12.5,0 5,5 0,0 z" transform="matrix(0.2,0,0,0.2,1.2,0)"/></marker><marker id="Arrow1Mstart" orient="auto" overflow="visible" refX="0" refY="0"><path id="path4949" fill-rule="evenodd" stroke="#000" stroke-width="1pt" d="M 0,0 5,-5 -12.5,0 5,5 0,0 z" transform="matrix(0.4,0,0,0.4,4,0)"/></marker><marker id="Arrow1Sstart-4" orient="auto" overflow="visible" refX="0" refY="0"><path id="path4955-5" fill-rule="evenodd" stroke="#000" stroke-width="1pt" d="M 0,0 5,-5 -12.5,0 5,5 0,0 z" transform="matrix(0.2,0,0,0.2,1.2,0)"/></marker><marker id="Arrow1Send-4" orient="auto" overflow="visible" refX="0" refY="0"><path id="path4958-6" fill-rule="evenodd" stroke="#000" stroke-width="1pt" d="M 0,0 5,-5 -12.5,0 5,5 0,0 z" transform="matrix(-0.2,0,0,-0.2,-1.2,0)"/></marker></defs><metadata id="metadata7"/><g id="layer1" transform="translate(-253.65772,218.97803)"><path id="path6851" fill="#00adff" fill-opacity=".757" stroke="none" d="M 259.64804,57.193502 792.57928,-142.14719 793.2573,341.96589 259.60777,174.1189 z"/><path id="path4887" fill="none" stroke="#000" stroke-dasharray="none" stroke-linecap="butt" stroke-linejoin="miter" stroke-miterlimit="4" stroke-opacity="1" stroke-width="2.091" d="m 890.84952,-178.96696 -631.14314,236.973167 0,116.242063 630.29325,197.35579"/><path id="path4891" fill="none" stroke="#000" stroke-dasharray="12.546 12.546" stroke-dashoffset="0" stroke-linecap="butt" stroke-linejoin="miter" stroke-miterlimit="4" stroke-opacity="1" stroke-width="2.091" d="m 260.83781,59.275793 630.97079,0"/><path id="path4891-7" fill="none" stroke="#000" stroke-dasharray="12.546 12.546" stroke-dashoffset="0" stroke-linecap="butt" stroke-linejoin="miter" stroke-miterlimit="4" stroke-opacity="1" stroke-width="2.091" d="m 260.99944,172.08634 630.97079,0"/><path id="path4911" fill="none" stroke="#000" stroke-dasharray="8.364 8.364" stroke-dashoffset="0" stroke-linecap="butt" stroke-linejoin="miter" stroke-miterlimit="4" stroke-opacity="1" stroke-width="2.091" d="m 793.23579,-189.85001 0,591.15535"/><path id="path4915" fill="none" stroke="#000" stroke-dasharray="none" stroke-dashoffset="0" stroke-miterlimit="4" stroke-opacity="1" stroke-width=".7" d="m 277.40703,204.94983 a 18.943148,18.943148 0 0 1 1.28197,6.81725" transform="matrix(2.987119,0,0,2.987119,-515.9493,-573.75675)"/><path id="path4915-5" fill="none" stroke="#000" stroke-dasharray="none" stroke-dashoffset="0" stroke-miterlimit="4" stroke-opacity="1" stroke-width=".7" d="m 278.67886,211.17971 a 18.943148,18.943148 0 0 1 -0.8432,6.24205" transform="matrix(2.987119,0,0,2.987119,-517.22894,-458.90756)"/><path id="path4935" fill="#000" fill-opacity="1" stroke="none" d="m 283.06309,227.78796 a 1.00761,1.00761 0 1 1 -2.01522,0 1.00761,1.00761 0 1 1 2.01522,0 z" transform="matrix(2.987119,0,0,2.987119,-525.77343,-564.0127)"/><path id="path4937" fill="none" stroke="#000" stroke-dasharray="none" stroke-linecap="butt" stroke-linejoin="miter" stroke-miterlimit="4" stroke-opacity="1" stroke-width="2.091" marker-end="url(#Arrow1Send)" marker-start="url(#Arrow1Sstart)" d="m 317.09757,65.254063 0,42.548767"/><path id="path4937-9" fill="none" stroke="#000" stroke-dasharray="none" stroke-linecap="butt" stroke-linejoin="miter" stroke-miterlimit="4" stroke-opacity="1" stroke-width="2.091" marker-end="url(#Arrow1Send)" marker-start="url(#Arrow1Sstart)" d="m 308.28828,116.39919 -42.54876,0"/><text id="text5787" x="321.458" y="92.086" fill="#000" fill-opacity="1" stroke="none" font-family="Sans" font-size="29.871" font-style="normal" font-weight="bold" letter-spacing="0" word-spacing="0" xml:space="preserve" style="line-height:125%;-inkscape-font-specification:Sans Bold"><tspan id="tspan5789" x="321.458" y="92.086" font-size="11.948">maxDeviation</tspan></text><text id="text5787-2" x="322.993" y="48.588" fill="#000" fill-opacity="1" stroke="none" font-family="Sans" font-size="29.871" font-style="normal" font-weight="bold" letter-spacing="0" word-spacing="0" xml:space="preserve" style="line-height:125%;-inkscape-font-specification:Sans Bold"><tspan id="tspan5789-5" x="322.993" y="48.588" font-size="11.948">wideningAngle</tspan></text><path id="path5830" fill="none" stroke="#000" stroke-dasharray="8.364 8.364" stroke-dashoffset="0" stroke-linecap="butt" stroke-linejoin="miter" stroke-miterlimit="4" stroke-opacity="1" stroke-width="2.091" d="m 315.70321,-189.85001 0,225.307165"/><path id="path5832" fill="none" stroke="#000" stroke-dasharray="none" stroke-linecap="butt" stroke-linejoin="miter" stroke-miterlimit="4" stroke-opacity="1" stroke-width="2.091" d="m 315.79005,-204.37393 476.77774,0"/><path id="path6839" fill="none" stroke="#000" stroke-dasharray="none" stroke-linecap="butt" stroke-linejoin="miter" stroke-miterlimit="4" stroke-opacity="1" stroke-width="2.091" d="m 315.303,-212.93254 0,17.24097"/><path id="path6841" fill="none" stroke="#000" stroke-dasharray="none" stroke-linecap="butt" stroke-linejoin="miter" stroke-miterlimit="4" stroke-opacity="1" stroke-width="2.091" d="m 792.91626,-212.93254 0,17.24097"/><text id="text6843" x="483.686" y="-188.722" fill="#000" fill-opacity="1" stroke="none" font-family="Sans" font-size="29.871" font-style="normal" font-weight="bold" letter-spacing="0" word-spacing="0" xml:space="preserve" style="line-height:125%;-inkscape-font-specification:Sans Bold"><tspan id="tspan6845" x="483.686" y="-188.722" font-size="11.948">distanceThreshold</tspan></text><text id="text6847" x="321.458" y="121.957" fill="#000" fill-opacity="1" stroke="none" font-family="Sans" font-size="29.871" font-style="normal" font-weight="bold" letter-spacing="0" word-spacing="0" xml:space="preserve" style="line-height:125%;-inkscape-font-specification:Sans Bold"><tspan id="tspan6849" x="321.458" y="121.957" font-size="11.948">Position of touch press</tspan></text><rect id="rect6863" width="35.258" height="35.936" x="295.584" y="318.913" fill="#00adff" fill-opacity=".757" stroke="none"/><text id="text6865" x="335.019" y="340.96" fill="#000" fill-opacity="1" stroke="none" font-family="Sans" font-size="29.871" font-style="normal" font-weight="bold" letter-spacing="0" word-spacing="0" xml:space="preserve" style="line-height:125%;-inkscape-font-specification:Sans Bold"><tspan id="tspan6867" x="335.019" y="340.96" font-size="11.948">Valid area for touch position during recognition</tspan></text></g></svg>